<svg width="0" height="0" class="hidden">
  <symbol xmlns="http://www.w3.org/2000/svg" viewBox="0 0 122.88 29.96" id="3-horizontal-dots">
    <title>3-horizontal-dots</title>
    <path d="M0 15a15 15 0 1115 15A15 15 0 010 15zm92.93 0a15 15 0 1115 15 15 15 0 01-15-15zm-46.47 0a15 15 0 1115 15 15 15 0 01-15-15z" fill-rule="evenodd"></path>
  </symbol>
  <symbol xmlns="http://www.w3.org/2000/svg" viewBox="0 0 122.88 66.91" id="line-angle-down">
    <path d="M11.68 1.95a6.884 6.884 0 00-9.73.13 6.884 6.884 0 00.13 9.73l54.79 53.13 4.8-4.93-4.8 4.95a6.9 6.9 0 009.75-.15c.08-.08.15-.16.22-.24l53.95-52.76a6.875 6.875 0 00.14-9.73c-2.65-2.72-7.01-2.79-9.73-.13L61.65 50.41 11.68 1.95z"></path>
  </symbol>
  <symbol xmlns="http://www.w3.org/2000/svg" viewBox="0 0 121.48 122.88" id="pencil">
    <path d="M96.84 2.22l22.42 22.42c2.96 2.96 2.96 7.8 0 10.76l-12.4 12.4-33.18-33.18 12.4-12.4c2.96-2.96 7.8-2.96 10.76 0zM70.18 52.19v.01c.92.92 1.38 2.14 1.38 3.34 0 1.2-.46 2.41-1.38 3.34v.01l-.01.01-30.08 30.09h-.01c-.26.26-.55.48-.84.67h-.01c-.3.19-.61.34-.93.45-1.66.58-3.59.2-4.91-1.12h-.01v-.01c-.26-.26-.48-.55-.67-.84v-.01c-.19-.3-.34-.61-.45-.93-.58-1.66-.2-3.59 1.11-4.91v-.01l30.09-30.09h.01c.92-.92 2.14-1.38 3.34-1.38 1.2 0 2.41.46 3.34 1.38h.03zm-24.7 56.92c-8.98 2.78-17.95 5.55-26.93 8.33-21.1 6.53-21.01 10.88-15.25-9.44l9.07-32-.03-.03L67.4 20.9l33.18 33.18-55.07 55.07-.03-.04zM18.03 81.66l21.79 21.79c-5.9 1.82-11.8 3.64-17.69 5.45-13.86 4.27-13.8 7.13-10.03-6.22l5.93-21.02z" fill-rule="evenodd" clip-rule="evenodd"></path>
  </symbol>
  <symbol xmlns="http://www.w3.org/2000/svg" viewBox="0 0 108.29 122.88" id="trash-can">
    <path d="M77.4 49.1h-5.94v56.09h5.94V49.1zM6.06 9.06h32.16V6.2c0-.1 0-.19.01-.29A6.207 6.207 0 0143.24.12c.73-.14 1.4-.12 2.14-.12H63.9c.25 0 .49-.01.73.02a6.178 6.178 0 015.85 5.79c.01.18.02.37.02.55v2.7H103c.44 0 .75.01 1.19.08 2.21.36 3.88 2.13 4.07 4.37.02.24.03.47.03.71v10.54c0 1.47-1.19 2.66-2.67 2.66H2.67A2.655 2.655 0 010 24.76v-9.97c0-4.15 2.04-5.73 6.06-5.73zM58.07 49.1h-5.95v56.09h5.95V49.1zm-19.33 0H32.8v56.09h5.95V49.1h-.01zm-28-17.53h87.09c.36.02.66.04 1.03.1 1.25.21 2.4.81 3.27 1.66 1.01 1 1.67 2.34 1.7 3.83 0 .31-.03.63-.06.95l-7.33 78.66c-.1 1.03-.27 1.95-.79 2.92-1.01 1.88-2.88 3.19-5.2 3.19H18.4c-.55 0-1.05 0-1.59-.08-.22-.03-.43-.08-.64-.14-.31-.09-.62-.21-.91-.35-.27-.13-.52-.27-.78-.45-1.51-1.04-2.51-2.78-2.69-4.72L4.5 37.88c-.02-.25-.04-.52-.04-.77.05-1.48.7-2.8 1.7-3.79.88-.86 2.06-1.47 3.33-1.67.41-.06.85-.08 1.25-.08zm87.01 5.33H10.6c-.57 0-.84.1-.79.7l7.27 79.05v.01c.03.38.2.69.45.83l.08.03.06.01h72.77c.6 0 .67-.84.71-1.28l7.34-78.71c.04-.5-.26-.64-.74-.64z"></path>
  </symbol>
</svg>